<?xml version="1.0" encoding="UTF-8" standalone="no"?>
<!-- Created with Inkscape (http://www.inkscape.org/) -->

<svg
   width="200mm"
   height="200mm"
   viewBox="0 0 200 200"
   version="1.1"
   id="svg5"
   inkscape:version="1.1.2 (b8e25be833, 2022-02-05)"
   sodipodi:docname="itcore_logo.svg"
   xmlns:inkscape="http://www.inkscape.org/namespaces/inkscape"
   xmlns:sodipodi="http://sodipodi.sourceforge.net/DTD/sodipodi-0.dtd"
   xmlns="http://www.w3.org/2000/svg"
   xmlns:svg="http://www.w3.org/2000/svg">
  <sodipodi:namedview
     id="namedview7"
     pagecolor="#ffffff"
     bordercolor="#666666"
     borderopacity="1.0"
     inkscape:pageshadow="2"
     inkscape:pageopacity="0.0"
     inkscape:pagecheckerboard="0"
     inkscape:document-units="mm"
     showgrid="false"
     inkscape:zoom="0.37014941"
     inkscape:cx="637.58037"
     inkscape:cy="394.43532"
     inkscape:window-width="1536"
     inkscape:window-height="801"
     inkscape:window-x="-8"
     inkscape:window-y="1072"
     inkscape:window-maximized="1"
     inkscape:current-layer="layer1" />
  <defs
     id="defs2" />
  <g
     inkscape:label="Слой 1"
     inkscape:groupmode="layer"
     id="layer1">
    <path
       style="fill:#295293;stroke-width:0.66222"
       d="m 128.4425,192.7116 c -27.2413,-7.57367 -24.98876,-6.78257 -23.98688,-8.42436 0.67318,-1.10316 0.61441,-1.47068 -0.34969,-2.18649 -1.81563,-1.34808 -1.4414,-2.46123 0.66223,-1.96981 1.00161,0.23398 11.65505,3.07852 23.67434,6.32121 12.01928,3.24268 22.43928,5.81342 23.15555,5.71273 1.65201,-0.23221 2.59755,-2.23178 4.00084,-8.4608 1.12568,-4.99675 3.67348,-13.57617 5.30972,-17.87992 0.48466,-1.27478 1.02627,-3.60739 1.20357,-5.18361 0.1773,-1.5762 0.80181,-3.3956 1.38779,-4.0431 0.61399,-0.67845 0.88175,-1.65589 0.63195,-2.30688 -0.23842,-0.62128 0.56215,-4.90874 1.77903,-9.5277 1.62901,-6.18334 2.63279,-8.7876 3.80622,-9.87511 1.01509,-0.94073 1.44049,-1.87636 1.17166,-2.57691 -0.23213,-0.60494 -0.22464,-2.15223 0.0167,-3.43841 0.39847,-2.12403 0.51839,-2.22954 1.30748,-1.15039 0.53691,0.73426 1.37416,1.05597 2.19175,0.84217 2.38064,-0.62256 2.31827,-0.20167 -2.60704,17.59125 -1.12931,4.07969 -2.33175,7.70072 -2.6721,8.04673 -0.34033,0.34602 -0.6188,1.29692 -0.6188,2.11313 0,0.81622 -0.30285,1.6712 -0.67301,1.89998 -0.37017,0.22877 -0.50296,0.69111 -0.29511,1.02742 0.50905,0.82369 -2.25572,10.62975 -3.34928,11.87918 -0.47818,0.54634 -0.7261,1.73833 -0.55093,2.64888 0.17518,0.91055 -0.91256,6.12553 -2.41717,11.58884 -2.2703,8.24356 -3.0679,10.24308 -4.68883,11.75439 -1.35876,1.26689 -2.60497,1.79861 -4.09493,1.74719 -1.17796,-0.0407 -11.97571,-2.80798 -23.99499,-6.14961 z m 5.90323,-7.96393 c -6.95139,-1.91389 -12.98587,-3.69424 -13.40994,-3.95633 -1.07772,-0.66607 -0.96296,-3.388 0.18293,-4.33901 0.52469,-0.43544 0.80004,-1.19286 0.6119,-1.68313 -0.18814,-0.49028 0.15326,-1.64738 0.75867,-2.57134 0.60539,-0.92395 0.91791,-1.97573 0.69446,-2.33726 -0.22344,-0.36154 0.47659,-4.02513 1.55561,-8.14132 4.42176,-16.86783 5.37814,-20.44202 7.67282,-28.67499 1.31968,-4.73487 2.99845,-10.84384 3.73059,-13.57549 0.73214,-2.73166 1.59824,-5.23941 1.92468,-5.5728 0.35782,-0.36543 2.5093,-0.0161 5.41758,0.87958 2.65323,0.81714 6.61204,1.92538 8.79736,2.46276 10.56431,2.59777 13.89237,3.59014 14.64365,4.36651 0.64931,0.67098 0.37347,2.54037 -1.34597,9.12168 -3.13902,12.01492 -4.29734,15.7778 -4.98836,16.20487 -0.33729,0.20845 -3.92464,-0.5401 -7.97187,-1.66346 -7.68747,-2.13374 -10.27073,-2.29592 -10.27073,-0.64477 0,0.64867 1.45065,1.37486 4.26218,2.13362 6.01372,1.62296 6.2404,1.96022 4.78534,7.12015 -0.65894,2.33675 -1.65658,4.53787 -2.21698,4.89136 -0.68767,0.43377 -2.38684,0.29811 -5.22691,-0.41731 -3.10733,-0.78274 -4.43905,-0.86825 -5.09128,-0.32695 -1.46359,1.21468 0.24003,2.14385 7.38291,4.02663 7.51111,1.97983 9.32728,3.3423 8.841,6.63241 -0.52747,3.5689 -4.55217,17.95192 -5.2687,18.82876 -0.96506,1.18098 -1.46877,1.09098 -15.47094,-2.76417 z m -5.33264,-13.29465 c 0.23219,-0.60508 9.9e-4,-0.99333 -0.59137,-0.99333 -0.53491,0 -0.97255,0.447 -0.97255,0.99333 0,0.54633 0.26612,0.99333 0.59137,0.99333 0.32525,0 0.76289,-0.447 0.97255,-0.99333 z m 9.03159,-0.55184 c 0,-0.48564 -0.18932,-1.0723 -0.42072,-1.30368 -0.23139,-0.23141 -0.51864,-1.51198 -0.63831,-2.84572 -0.11969,-1.33375 -0.34835,-2.55574 -0.50813,-2.71552 -0.50195,-0.50196 -3.06838,1.40364 -3.06838,2.2783 0,0.45872 -0.42216,0.83403 -0.93814,0.83403 -0.51598,0 -1.06807,0.3725 -1.22689,0.82778 -0.49737,1.42586 0.21208,2.35051 1.53753,2.0039 0.7898,-0.20654 1.42938,0.0728 1.68363,0.7354 0.49284,1.28429 3.57941,1.44425 3.57941,0.18551 z m 15.7691,-4.37342 c 0.16556,-0.49666 -0.0828,-0.74499 -0.57945,-0.57944 -0.47804,0.15935 -0.99954,0.68084 -1.15887,1.15889 -0.16556,0.49666 0.0828,0.74499 0.57943,0.57944 0.47804,-0.15935 0.99954,-0.68085 1.15889,-1.15889 z m -12.835,-33.75009 c -0.17422,-0.17421 -0.83116,0.2203 -1.45987,0.87671 -1.09219,1.1403 -1.07808,1.15442 0.31676,0.31676 0.80293,-0.4822 1.31733,-1.01925 1.14311,-1.19347 z m 8.60169,-9.42139 c -0.52242,-0.84531 -1.6025,-0.037 -1.6025,1.19933 0,0.84181 0.18431,0.88237 0.98604,0.21699 0.54232,-0.45009 0.81973,-1.08744 0.61646,-1.41632 z m 4.61994,-2.08322 0.43344,-1.83795 -1.39248,1.39249 c -0.8161,0.8161 -1.22525,1.82829 -0.98846,2.44535 0.50809,1.3241 1.37305,0.43588 1.9475,-1.99989 z m -67.808846,60.08383 c -7.102302,-1.95571 -14.029038,-3.8781 -15.392746,-4.27197 -1.700851,-0.49123 -2.80881,-1.353 -3.52827,-2.74428 l -1.048808,-2.02817 -1.47342,1.38421 -1.473422,1.38421 -9.324527,-2.57717 c -5.128491,-1.41745 -9.98072,-2.92837 -10.782733,-3.35758 -0.802014,-0.42923 -1.59964,-0.63898 -1.772503,-0.46612 -0.172863,0.17287 -1.860834,-0.11941 -3.751045,-0.64951 -1.890212,-0.5301 -5.22474,-1.40042 -7.410064,-1.93407 -2.185324,-0.53364 -6.269836,-1.74443 -9.076695,-2.69067 -5.002782,-1.68651 -5.075763,-1.74278 -3.702397,-2.85487 0.786087,-0.63653 1.192259,-1.47217 0.925426,-1.90391 -0.718577,-1.16268 -2.860676,-0.92262 -3.836494,0.42995 -1.417129,1.96426 -2.354876,2.21458 -5.1543139,1.37585 -2.0626181,-0.61798 -3.0444329,-1.45198 -4.3679055,-3.71032 -1.6695503,-2.84887 -1.6852356,-2.98903 -0.7108683,-6.35236 0.5479945,-1.89156 3.2923728,-11.93217 6.0986197,-22.31246 4.855379,-17.96002 6.012205,-21.29537 6.718203,-19.36991 0.373293,1.01807 2.179805,1.10388 2.179805,0.10355 0,-0.39832 -0.595997,-0.88006 -1.324439,-1.07056 -1.932955,-0.50548 -1.989247,-0.13978 2.781777,-18.071788 3.671133,-13.798047 4.692246,-16.118516 7.547163,-17.15087 2.858952,-1.033811 2.912523,-3.119206 0.07507,-2.922149 -2.096586,0.145609 -2.165489,-0.292775 -0.779548,-4.959744 0.649879,-2.188379 1.54414,-3.694781 2.483323,-4.183211 2.129739,-1.107586 2.153437,-1.171919 0.797042,-2.163739 -1.195414,-0.874107 -1.163297,-1.185303 0.973194,-9.429784 1.215171,-4.689215 2.783127,-10.090338 3.484344,-12.002497 1.201128,-3.275366 2.550953,-4.34606 3.514199,-2.787495 0.234257,0.379037 0.996841,0.507954 1.694631,0.286485 1.648493,-0.523212 1.609795,0.08893 -0.440685,6.970992 -0.922403,3.095875 -1.918823,6.562212 -2.214265,7.70297 -0.295442,1.140759 -0.782373,2.470856 -1.082067,2.955773 -0.299695,0.484917 -0.767028,2.084558 -1.038517,3.554758 -1.382293,7.485551 -3.496737,14.688434 -4.748045,16.174283 -0.49451,0.587203 -0.944478,2.492123 -0.999927,4.233157 -0.08995,2.824121 -3.852689,18.107811 -6.51644,26.468779 -0.981128,3.07956 -1.731408,3.80986 -2.551257,2.48332 -1.034506,-1.67386 -1.568508,-0.42813 -0.610561,1.42434 1.222561,2.36417 1.000272,4.83187 -1.021747,11.34275 -1.721397,5.54288 -3.491977,12.09728 -5.316732,19.68166 -0.832478,3.4601 -2.048141,6.88709 -2.701476,7.61552 -1.7335138,1.9328 -2.3734433,4.28772 -1.9663123,7.23595 l 0.3590992,2.60041 6.2910841,1.42788 c 3.460096,0.78532 15.470036,3.91631 26.688754,6.95773 14.687101,3.98172 20.833572,5.93385 21.954672,6.97285 1.252923,1.16116 2.183842,1.39771 4.766667,1.2112 2.399671,-0.17328 6.635578,0.72707 16.785162,3.5677 13.511302,3.7815 13.574522,3.80782 13.370059,5.56329 -0.151952,1.3046 0.149768,1.87657 1.158882,2.19684 1.85839,0.58983 1.76128,2.34585 -0.12568,2.27254 -0.819485,-0.0318 -7.300958,-1.65802 -14.403262,-3.61374 z m 24.895216,-4.06475 c -0.94465,-1.01875 -1.71754,-2.22782 -1.71754,-2.68681 0,-0.459 -0.29448,-0.83454 -0.6544,-0.83454 -0.35994,0 -0.58343,0.66953 -0.49667,1.48786 0.11645,1.09834 -0.23231,1.54379 -1.33225,1.70159 -1.30552,0.1873 -1.50539,-0.0994 -1.61433,-2.31562 -0.0684,-1.39116 -0.049,-4.02368 0.0432,-5.85004 0.14129,-2.80104 -0.0896,-3.56216 -1.47532,-4.86402 -1.49156,-1.40124 -1.81019,-1.46134 -3.46037,-0.65265 -1.44663,0.70894 -2.05005,1.74622 -2.956933,5.08306 -0.626664,2.3058 -1.459233,4.51221 -1.850141,4.90312 -0.506175,0.50616 -2.101342,0.34782 -5.54226,-0.55016 -3.817794,-0.99635 -4.868995,-1.53879 -5.010173,-2.58535 -0.09826,-0.72844 3.267873,-13.98938 7.480297,-29.46876 4.212431,-15.47938 8.07693,-29.7124 8.5878,-31.62893 1.1797,-4.4258 1.42571,-4.79497 3.18846,-4.7846 1.68425,0.01 9.63573,2.41687 10.67734,3.23209 0.38878,0.30428 2.34585,0.72569 4.34907,0.9365 6.22237,0.65479 10.67635,2.47552 12.46114,5.09394 1.39736,2.05005 1.53851,2.83153 1.22193,6.76565 -0.38734,4.81346 -5.29153,23.73778 -8.33761,32.17318 -2.12317,5.87962 -4.71368,10.34291 -6.58406,11.34391 -1.66173,0.88933 -2.22765,3.23874 -2.32398,9.64812 -0.0735,4.89218 -0.18895,5.31333 -1.50765,5.50125 -0.89469,0.12748 -2.06948,-0.48829 -3.14554,-1.64879 z m 2.91801,-2.19691 c 0,-0.36422 -0.298,-0.66222 -0.66223,-0.66222 -0.36422,0 -0.66222,0.298 -0.66222,0.66222 0,0.36421 0.298,0.66221 0.66222,0.66221 0.36423,0 0.66223,-0.298 0.66223,-0.66221 z m 0.65803,-6.45664 c -0.006,-0.66992 -3.83741,-2.81443 -5.02874,-2.81443 -0.68624,0 -0.83567,-0.46462 -0.5349,-1.66304 0.3372,-1.34346 0.21328,-1.5847 -0.64488,-1.2554 -0.76908,0.29513 -0.94693,0.89123 -0.64434,2.1597 0.60341,2.52948 0.80417,2.74539 2.55262,2.74539 0.86756,0 1.76155,0.298 1.98665,0.66222 0.47495,0.76847 2.31978,0.90049 2.31359,0.16556 z m 0.77435,-24.98774 c 0.77293,-2.61231 0.94921,-4.18541 0.51738,-4.61724 -0.36024,-0.36025 -2.5108,-1.1704 -4.77902,-1.80035 -3.75742,-1.04353 -4.19519,-1.05198 -4.92421,-0.095 -0.96296,1.26402 -2.54983,8.00788 -2.01107,8.54663 0.69373,0.69372 6.75537,2.17132 8.40454,2.04871 1.37675,-0.10236 1.79605,-0.7154 2.79238,-4.08271 z m -4.39233,-25.53893 c 0.18296,-0.29604 0.0298,-0.72544 -0.34035,-0.95422 -0.37017,-0.22876 -0.67302,-1.09717 -0.67302,-1.92978 0,-2.11377 -2.13425,-3.85053 -4.41142,-3.58984 -1.78643,0.20452 -1.87006,0.36193 -1.68591,3.17353 0.10656,1.62709 0.53958,3.17206 0.96225,3.43329 1.03771,0.64135 5.73265,0.53981 6.14845,-0.13298 z m 0.30093,-7.74864 c -0.0461,-2.26014 -3.41863,-2.83527 -3.83857,-0.65461 -0.17178,0.89192 0.23676,1.15128 1.81349,1.15128 1.11937,0 2.03066,-0.22351 2.02508,-0.49667 z m -38.067483,57.46721 c -0.728442,-0.3041 -3.112431,-0.91965 -5.297756,-1.3679 -10.85728,-2.22704 -12.995376,-3.4114 -14.238786,-7.88727 -1.463216,-5.26712 -0.231012,-13.00399 5.226308,-32.81544 3.661702,-13.2929 4.437418,-15.61413 6.971014,-20.85991 3.206248,-6.638483 6.15235,-9.020843 10.329431,-8.352902 4.305526,0.688482 8.854913,2.464132 9.811157,3.829362 0.700165,0.99962 1.093874,1.10925 1.819859,0.50674 1.320075,-1.095568 5.09801,-0.22761 6.718878,1.54362 1.89004,2.06535 2.375394,4.074 2.276637,9.42183 -0.101339,5.48788 -0.676921,8.38158 -4.545256,22.85123 -5.620785,21.02471 -9.071815,29.31831 -13.433298,32.28318 -2.314735,1.57354 -3.479533,1.74862 -5.638188,0.84746 z m -4.966646,-9.95296 c 0,-0.36423 -0.280411,-0.66223 -0.623136,-0.66223 -0.342727,0 -0.807312,0.298 -1.032412,0.66223 -0.225101,0.36421 0.05531,0.66221 0.623137,0.66221 0.567824,0 1.032411,-0.298 1.032411,-0.66221 z m 13.897614,-20.0567 c 2.484879,-0.21278 2.497044,-2.23902 0.02172,-3.62029 -1.695062,-0.94588 -2.025291,-1.49289 -1.815023,-3.00651 0.301157,-2.16797 0.108842,-2.322 -4.376277,-3.50515 -2.687187,-0.70887 -3.573693,-0.72801 -4.173486,-0.0901 -1.184783,1.2601 -2.780652,7.53471 -2.168344,8.52545 0.717554,1.16102 6.363418,2.52156 8.87819,2.13945 1.092662,-0.16603 2.727608,-0.36531 3.633213,-0.44286 z m 0.287608,-15.20649 c 2.599913,-5.69955 2.65209,-6.76398 0.423477,-8.63924 -1.464419,-1.23222 -1.846136,-2.0064 -1.549184,-3.14194 0.34058,-1.30239 0.193495,-1.45438 -1.084125,-1.12027 -0.981211,0.25659 -1.921423,-0.0567 -2.796605,-0.93189 -1.015177,-1.01517 -1.803548,-1.21573 -3.427509,-0.87193 -2.287763,0.48434 -5.027039,3.24409 -5.065244,5.10309 -0.03933,1.91267 1.846672,1.30926 3.104724,-0.99333 l 1.17589,-2.15222 0.205532,2.48333 c 0.161012,1.94544 0.483738,2.48333 1.489994,2.48333 0.706449,0 1.28446,-0.3178 1.28446,-0.70621 0,-0.38842 0.799809,-0.61191 1.777358,-0.49666 1.335722,0.15747 1.907953,0.7015 2.302967,2.18946 0.590123,2.2229 -0.575104,5.63559 -1.924211,5.63559 -0.457421,0 -0.831675,0.57164 -0.831675,1.27028 0,4.61674 2.786176,4.55358 4.914151,-0.11139 z m -8.766433,-0.35888 c 0.467633,-3.18618 -0.185753,-7.42219 -1.144838,-7.42219 -1.448652,0 -1.910264,1.46477 -0.732918,2.32568 1.261759,0.92261 1.437605,3.02629 0.344354,4.11955 -0.808954,0.80895 -0.34203,2.82583 0.654207,2.82583 0.334307,0 0.72995,-0.83198 0.879195,-1.84887 z m 4.514502,-4.52329 c 0,-0.53159 -0.690834,-0.91225 -1.655549,-0.91225 -1.860372,0 -1.950726,0.19775 -0.947146,2.07295 0.565701,1.05702 0.899195,1.16532 1.655548,0.5376 0.520929,-0.43233 0.947147,-1.19657 0.947147,-1.6983 z M 74.203893,105.9669 c 0.282417,-0.73596 0.744739,-0.77183 2.313828,-0.17956 2.472681,0.93333 4.161804,0.007 4.454518,-2.44415 0.211857,-1.77369 -1.30789,-2.5294 -2.196198,-1.09209 -0.572793,0.9268 -4.304426,0.83111 -4.304426,-0.11038 0,-0.42491 -0.173833,-0.59875 -0.386292,-0.38629 -0.212467,0.21246 -0.348387,0.57627 -0.302058,0.80847 0.04636,0.2322 -0.57225,0.95376 -1.374622,1.60349 -0.823198,0.66659 -1.251648,1.51658 -0.983297,1.95077 0.654545,1.05909 2.349661,0.96742 2.778547,-0.15026 z m -42.706632,50.87382 c -11.470998,-3.10054 -13.295322,-5.11194 -12.965687,-14.29525 0.160468,-4.47044 0.734145,-7.53231 3.082935,-16.45447 0.719117,-2.73166 1.599222,-6.15865 1.955786,-7.61553 0.364416,-1.48896 1.429181,-3.30008 2.431576,-4.13603 1.689194,-1.40869 1.720215,-1.53623 0.587966,-2.4174 -1.095916,-0.85291 -1.114348,-1.12404 -0.221662,-3.26053 0.638443,-1.52801 1.488081,-2.40567 2.46788,-2.54925 1.994158,-0.29222 2.481249,-1.87451 0.577049,-1.87451 -1.296403,0 -1.413707,-0.2443 -1.033424,-2.15221 0.81575,-4.092679 5.241881,-11.974381 7.615587,-13.561226 2.873835,-1.921197 5.365379,-2.00469 5.365379,-0.179806 0,0.728438 -0.297999,1.324434 -0.66222,1.324434 -0.920495,0 -0.831816,1.803686 0.117529,2.390407 0.466733,0.288459 1.533103,-0.420486 2.656433,-1.766059 l 1.876686,-2.247972 6.117973,1.570397 c 3.364886,0.863718 6.636387,1.833862 7.270004,2.155886 3.680735,1.870631 4.38696,10.135109 1.832159,21.440539 -1.783837,7.89377 -2.257179,8.90554 -4.166372,8.90553 -1.795702,0 -13.798798,-3.8466 -14.6945,-4.7091 -0.417975,-0.40248 -0.35426,-1.08827 0.180692,-1.94486 0.606379,-0.97098 0.637188,-1.67658 0.115747,-2.6509 -0.916608,-1.7127 -1.96857,-1.05239 -1.96857,1.23567 0,1.32811 -0.485595,2.00085 -1.894341,2.62442 -1.041887,0.46119 -2.382881,0.65106 -2.979987,0.42192 -0.728493,-0.27955 -1.085647,-0.0665 -1.085647,0.64758 0,0.5853 0.479305,1.06418 1.065119,1.06418 0.847298,0 0.958129,0.37242 0.541952,1.82111 -0.287741,1.0016 -0.543546,2.86084 -0.568454,4.13163 l -0.04528,2.31053 9.271071,2.52865 c 5.099089,1.39075 9.658198,2.90928 10.131352,3.37449 0.704498,0.69268 0.480264,2.03484 -1.23829,7.41188 -3.588553,11.22791 -7.616582,17.44671 -11.873047,18.33059 -0.910552,0.18908 -5.349075,-0.65455 -9.863386,-1.87474 z m 1.254533,-42.33856 c 0,-0.54634 -0.297999,-0.99334 -0.66222,-0.99334 -0.364221,0 -0.662219,0.447 -0.662219,0.99334 0,0.54632 0.297998,0.99332 0.662219,0.99332 0.364221,0 0.66222,-0.447 0.66222,-0.99332 z m 141.136256,9.0968 c -1.50116,-1.61378 -1.53566,-1.85692 -0.76536,-5.39338 0.44367,-2.03688 1.22559,-4.36344 1.73758,-5.17013 0.512,-0.80667 0.93091,-2.1001 0.93091,-2.87429 0,-1.78557 7.15085,-28.570179 7.80118,-29.220506 0.26637,-0.266371 1.48212,0.147457 2.70165,0.919618 2.54874,1.61374 2.55328,2.316988 0.0688,10.653889 -2.46319,8.265389 -2.96481,9.370749 -4.63643,10.216629 -1.20662,0.61059 -1.32936,0.82776 -0.47188,0.83498 1.66394,0.0141 1.45226,2.28832 -0.33111,3.55741 -1.06943,0.76105 -1.14972,0.9457 -0.28445,0.65424 1.075,-0.36211 1.15634,-0.12757 0.75113,2.166 -1.38975,7.86624 -4.12591,15.60755 -5.44859,15.41543 -0.26476,-0.0384 -1.18881,-0.83041 -2.05342,-1.75989 z m -25.24786,-19.58035 c 0,-0.48475 4.16648,-6.221225 9.25884,-12.747706 5.09235,-6.526494 9.26434,-12.179238 9.27106,-12.561637 0.0182,-1.035467 -7.66779,-2.473992 -9.10598,-1.704294 -0.64833,0.346976 -5.04543,4.230495 -9.77133,8.63005 -5.65127,5.261014 -9.02816,7.94389 -9.86512,7.837653 -3.1007,-0.393563 -2.38693,-1.207277 14.46156,-16.486372 2.47994,-2.24895 2.60622,-2.531114 1.80376,-4.030519 -0.47457,-0.886751 -0.80329,-2.033529 -0.73048,-2.548405 0.32616,-2.306623 -0.0149,-2.699021 -1.97242,-2.269089 l -1.94787,0.427828 1.28565,-2.660986 c 1.61092,-3.334227 1.60628,-3.858387 -0.0388,-4.380512 -1.45174,-0.460763 -1.5835,-1.397438 -0.71976,-5.116251 0.5427,-2.336565 0.50266,-2.429685 -0.75527,-1.756458 -1.01711,0.544341 -1.56093,0.478344 -2.32095,-0.281662 -0.88195,-0.88196 -0.81799,-1.102037 0.57393,-1.974729 4.71099,-2.953648 13.65329,-7.088795 16.1341,-7.460816 3.76297,-0.564292 9.65161,1.160032 12.42543,3.638438 2.11062,1.885839 2.11827,1.914928 0.86669,3.297897 -1.24269,1.373165 -1.24193,1.434475 0.048,3.86888 1.02802,1.940125 1.643,2.42559 2.85149,2.250973 3.84359,-0.555357 3.60578,4.958301 -0.56654,13.135909 -0.27875,0.54633 -1.41357,1.589327 -2.52182,2.317767 -1.10827,0.728442 -5.99959,6.366908 -10.86962,12.529922 -13.7592,17.412229 -15.07806,18.925479 -16.49428,18.925479 -0.71516,0 -1.3003,-0.39661 -1.3003,-0.88136 z m 13.3199,-37.692899 c 0.0415,-0.455276 0.17267,-1.647271 0.29143,-2.648877 0.11875,-1.001607 -0.0642,-1.821104 -0.40662,-1.821104 -0.34239,0 -0.62255,0.26075 -0.62255,0.579442 0,0.318693 -0.18624,1.510688 -0.41388,2.648878 -0.26734,1.336703 -0.1501,2.069435 0.33111,2.069435 0.40975,0 0.77898,-0.372498 0.82051,-0.827774 z m 16.14886,-5.794419 c 0.2251,-0.364221 0.0937,-0.66222 -0.29203,-0.66222 -0.38572,0 -0.7013,0.297999 -0.7013,0.66222 0,0.364221 0.13141,0.662219 0.29202,0.662219 0.16062,0 0.47621,-0.297998 0.70131,-0.662219 z m -64.25057,35.072869 c -0.58315,-0.943525 2.44568,-3.823198 7.90814,-7.518693 3.43564,-2.32431 4.71689,-2.88665 5.12204,-2.248091 1.00008,1.576162 0.5746,2.265682 -2.91604,4.725804 -8.23329,5.802626 -9.31135,6.339941 -10.11414,5.04098 z M 83.420424,93.767835 c -2.647805,-0.748838 -4.037438,-1.50011 -4.18418,-2.262094 -0.287396,-1.492305 8.361936,-33.501743 9.582559,-35.463136 0.521365,-0.837766 0.705793,-1.868497 0.414715,-2.317768 -0.288304,-0.444988 -0.524186,-1.547589 -0.524186,-2.450226 0,-2.114194 -2.251308,-2.729339 -2.767316,-0.756138 -0.761532,2.912112 -4.789349,2.449313 -4.70434,-0.540531 0.02874,-1.010874 -0.125318,-2.125281 -0.342361,-2.476461 -0.217041,-0.351179 0.786332,-4.938605 2.229713,-10.194278 1.443387,-5.255674 2.929314,-10.673266 3.302071,-12.039094 0.488407,-1.789586 1.038704,-2.483322 1.969864,-2.483322 1.350385,0 22.884927,5.712455 23.900377,6.340039 0.89706,0.554419 0.69248,2.01578 -0.41033,2.931032 -1.38015,1.145427 -1.23995,1.986658 0.33111,1.986658 0.72845,0 1.32444,0.297999 1.32444,0.66222 0,0.36422 0.59953,0.662219 1.33227,0.662219 1.18984,0 1.28868,0.300856 0.92453,2.814433 -0.45296,3.126635 -1.96156,9.620284 -2.99265,12.881638 -0.36872,1.166316 -1.22442,2.296409 -1.90155,2.511319 -0.94878,0.301133 -1.18232,0.915874 -1.01832,2.680517 0.24616,2.648612 -0.37578,2.913975 -1.87449,0.799778 -0.97244,-1.371809 -1.12609,-1.402171 -1.9371,-0.382788 -0.48447,0.608963 -1.90802,1.20496 -3.16342,1.324438 l -2.28256,0.217234 -4.966635,18.211033 C 90.002593,97.178036 90.91386,95.887071 83.420424,93.767835 Z M 108.90702,53.61707 c 0,-0.160615 -0.298,-0.4762 -0.66221,-0.701302 -0.36422,-0.2251 -0.66222,-0.09369 -0.66222,0.292028 0,0.385716 0.298,0.701302 0.66222,0.701302 0.36421,0 0.66221,-0.131413 0.66221,-0.292028 z m 3.3111,-16.192606 c 0,-0.772329 -1.9342,-1.505872 -2.70863,-1.027246 -1.16715,0.721341 -0.58339,1.618614 1.05309,1.618614 0.91055,0 1.65554,-0.266115 1.65554,-0.591368 z M 95.662635,28.744761 c 0,-0.36422 -0.297999,-0.662219 -0.662219,-0.662219 -0.364221,0 -0.662219,0.297999 -0.662219,0.662219 0,0.364221 0.297998,0.662219 0.662219,0.662219 0.36422,0 0.662219,-0.297998 0.662219,-0.662219 z M 49.158744,84.457223 c -7.548217,-2.068235 -14.040763,-4.07715 -14.427879,-4.46427 -0.955764,-0.955762 0.0791,-3.52916 2.246387,-5.586112 0.941399,-0.893466 1.716783,-2.145988 1.723075,-2.783375 0.009,-0.908644 0.583416,-1.158884 2.660319,-1.158884 2.085124,0 2.646719,-0.246643 2.638737,-1.158883 -0.01502,-1.716527 -1.056366,-3.054735 -2.075238,-2.666837 -0.492035,0.187325 -1.537853,0.101434 -2.324038,-0.190869 -1.303116,-0.484496 -1.37571,-0.784027 -0.821499,-3.389635 1.201563,-5.649112 2.80272,-11.194143 3.3257,-11.517363 0.293152,-0.181178 2.342494,0.139472 4.554093,0.712555 2.211598,0.573082 4.278395,0.882943 4.592881,0.688581 0.79523,-0.491479 2.242162,-6.794254 1.815196,-7.906912 -0.192451,-0.501519 -1.875039,-1.302731 -3.739084,-1.780471 -1.864044,-0.47774 -3.689302,-1.230255 -4.05613,-1.672255 -0.752143,-0.906277 4.116697,-20.056374 5.741431,-22.582169 0.518903,-0.806682 0.943461,-2.204589 0.943461,-3.106459 0,-0.901871 0.317825,-1.836193 0.706278,-2.07627 1.144272,-0.707198 1.446928,0.134214 0.610465,1.697158 -0.562078,1.050253 -0.57693,1.652541 -0.05365,2.175818 0.397963,0.397963 0.723568,1.281816 0.723568,1.964119 0,0.826245 0.387031,1.164941 1.158884,1.014153 0.826498,-0.161464 1.099269,-0.734046 0.951032,-1.996336 -0.16668,-1.419334 0.208729,-1.98536 1.895153,-2.857444 2.027048,-1.048227 2.42921,-1.000639 11.134472,1.317572 12.666362,3.37305 13.335892,3.61681 13.335892,4.855298 0,1.933076 -6.769113,26.265896 -7.538797,27.099609 -0.584914,0.633564 -1.568635,0.592311 -4.570859,-0.19168 -2.10405,-0.549442 -4.106364,-0.82543 -4.44959,-0.613306 -0.343224,0.212126 -1.087544,1.937374 -1.654042,3.833886 -0.990229,3.315072 -0.978036,3.490713 0.315773,4.549196 0.740174,0.605546 2.519768,1.299339 3.954657,1.541761 1.434884,0.242423 2.887025,0.789972 3.226975,1.216775 0.674001,0.8462 -5.957396,26.473083 -7.254932,28.036521 -0.898062,1.082097 0.939629,1.443118 -15.288691,-3.003472 z m -5.81144,-19.952615 c 0,-0.364221 -0.297999,-0.66222 -0.66222,-0.66222 -0.36422,0 -0.662218,0.297999 -0.662218,0.66222 0,0.364221 0.297998,0.662219 0.662218,0.662219 0.364221,0 0.66222,-0.297998 0.66222,-0.662219 z m 85.100836,20.537938 c -0.222,-0.359208 0.66848,-1.594423 1.97883,-2.744931 3.67028,-3.222545 13.92906,-10.423194 15.93831,-11.187104 2.08844,-0.794027 3.07631,-0.229075 1.57061,0.898208 -0.56832,0.425496 -1.21308,1.253634 -1.43279,1.840308 -0.50424,1.346457 -15.23814,11.846605 -16.62328,11.846605 -0.56542,0 -1.20969,-0.293898 -1.43168,-0.653086 z m 58.4364,-6.526323 c -2.17545,-1.312903 -2.33443,-2.091666 -0.427,-2.091666 1.06851,0 1.28393,-0.271404 0.91976,-1.158884 -0.64238,-1.56554 -0.64547,-2.125141 -0.0257,-4.652793 0.4037,-1.646404 0.80796,-2.081872 1.67668,-1.80615 0.62959,0.199824 1.52987,-0.100764 2.0006,-0.667968 0.71661,-0.863461 0.62407,-1.247265 -0.56872,-2.358516 -1.66873,-1.554664 -1.97153,-6.234521 -0.53087,-8.204753 0.83715,-1.14487 0.9639,-1.081677 2.00128,0.997808 0.98232,1.969096 0.99394,2.283658 0.10277,2.782381 -0.8747,0.489504 -0.8352,0.794014 0.30512,2.352275 1.21065,1.654358 1.23769,1.99068 0.357,4.438858 -0.5241,1.456882 -0.96599,3.136151 -0.98197,3.731718 -0.0425,1.582784 -2.1488,7.867537 -2.61299,7.796574 -0.21784,-0.03331 -1.21503,-0.554795 -2.21598,-1.158884 z m -66.2783,-10.479781 c -1.08505,-1.085033 -0.22823,-2.367626 2.35392,-3.52369 4.41423,-1.97631 5.99636,0.411356 1.88275,2.841333 -1.99885,1.180744 -3.49699,1.422037 -4.23667,0.682357 z m 73.0352,-11.072729 c -1.03489,-2.085254 -1.22224,-6.205577 -0.39761,-8.744132 0.37744,-1.161929 0.0272,-1.551145 -2.17382,-2.415733 -2.05356,-0.80666 -2.74624,-1.503266 -3.1873,-3.205401 -0.71871,-2.773588 -1.92131,-3.178291 -2.92147,-0.983152 -0.69061,1.515716 -1.06022,1.670251 -3.15505,1.319157 -3.99872,-0.670186 -32.13491,-8.323681 -32.75485,-8.909844 -0.3202,-0.302755 -0.64679,-1.614575 -0.72576,-2.915155 -0.13014,-2.143528 0.0173,-2.363637 1.57551,-2.353414 0.94551,0.0062 7.97706,1.734097 15.6257,3.839767 l 13.9066,3.82849 -0.19063,1.789097 c -0.13849,1.299884 0.10898,1.789097 0.90502,1.789097 0.78725,0 0.99319,-0.391711 0.73169,-1.391705 -0.32478,-1.241923 -0.13709,-1.356941 1.74387,-1.068698 6.18172,0.947309 12.03963,2.89919 13.89086,4.628488 1.85107,1.729153 1.95171,2.077381 1.62901,5.636173 -0.18917,2.086233 -1.04929,5.463797 -1.91136,7.5057 l -1.56742,3.712551 z m -52.71937,0.559031 c -0.21568,-0.562039 -0.28082,-1.083537 -0.14477,-1.158884 0.13605,-0.07534 1.18734,-0.658492 2.3362,-1.295878 2.63251,-1.460518 2.87782,-1.449606 2.87782,0.128004 0,1.333367 -2.29314,3.348648 -3.81034,3.348648 -0.47672,0 -1.04323,-0.459851 -1.25891,-1.02189 z M 41.360646,31.393639 c 0,-1.396678 -0.963451,-1.782057 -1.655548,-0.66222 -0.943765,1.527043 -1.547595,0.461005 -1.356657,-2.395126 0.214421,-3.207397 1.235862,-4.440489 3.177759,-3.836215 1.448068,0.450605 1.483058,-0.161282 0.08894,-1.555397 -1.135989,-1.135989 -0.953408,-5.663375 0.437773,-10.855193 0.593653,-2.2154846 0.840626,-2.4120904 2.954754,-2.3521627 2.530833,0.071735 3.490219,1.4837587 2.425209,3.5694147 -0.337105,0.660168 -1.089173,3.733294 -1.671262,6.829169 -0.582089,3.095876 -1.523981,7.193358 -2.093093,9.105517 -1.032848,3.470261 -2.307879,4.659291 -2.307879,2.152213 z m 74.830794,0 c 0,-0.364221 0.28041,-0.66222 0.62314,-0.66222 0.34272,0 0.8073,0.297999 1.0324,0.66222 0.22511,0.36422 -0.0553,0.662219 -0.62312,0.662219 -0.56783,0 -1.03242,-0.297999 -1.03242,-0.662219 z m 14.56815,-3.311819 c -1.95614,-2.094049 -2.06342,-2.123669 -5.00723,-1.382409 -2.80561,0.706463 -3.31816,0.613899 -7.60903,-1.374144 -4.0949,-1.897247 -4.60077,-2.336144 -4.60077,-3.991604 0,-1.418493 0.31437,-1.859973 1.32444,-1.859973 0.72844,0 1.32444,0.396159 1.32444,0.880355 0,0.487061 0.66565,0.856864 1.48999,0.827774 1.16295,-0.04104 1.45537,0.274472 1.33225,1.437413 -0.10041,0.948378 0.20049,1.489993 0.82777,1.489993 0.54204,0 0.98552,-0.247642 0.98552,-0.550317 0,-0.302674 0.73485,-0.943592 1.63298,-1.424259 1.36069,-0.728218 1.81505,-0.722838 2.72489,0.03227 0.60055,0.498414 1.5792,0.939359 2.17479,0.979876 0.59558,0.04051 1.89669,0.124641 2.89136,0.186941 1.37791,0.0863 1.91643,0.546843 2.2619,1.934376 0.24938,1.001607 0.87796,2.134781 1.39685,2.518164 0.80914,0.59784 0.79436,0.820784 -0.10387,1.566252 -0.89473,0.742559 -1.33855,0.557427 -3.04628,-1.270706 z m 9.42858,0.430427 c -2.44541,-0.801773 -2.51078,-2.183337 -0.0898,-1.898085 0.87369,0.102943 2.32948,0.251943 3.23508,0.33111 0.96616,0.08446 1.73875,0.622822 1.86967,1.302825 0.25647,1.332215 -1.47859,1.423606 -5.01494,0.26415 z m -33.93002,-5.81361 C 104.98338,22.352731 95.000416,19.671577 84.073796,16.740516 73.147177,13.809456 63.490799,10.953402 62.615181,10.393731 61.207658,9.4940833 61.150097,9.3051037 62.118516,8.7631487 c 0.602453,-0.337149 1.095369,-1.0451893 1.095369,-1.5734213 0,-1.1029416 -1.698435,-1.3003053 -2.334416,-0.2712669 -0.234257,0.3790361 -0.998309,0.5074881 -1.697892,0.2854484 -0.822514,-0.2610551 -1.412852,-0.036572 -1.670668,0.6352825 -0.508555,1.3252725 -2.419876,1.3243205 -4.985633,-0.00246 -1.831587,-0.9471493 -2.11821,-0.9471493 -3.164799,0 -1.451896,1.313948 -2.676031,1.3171391 -4.539616,0.011836 -1.358751,-0.9517063 -1.398725,-1.1674999 -0.52812,-2.8510622 1.01622,-1.9651542 3.53447,-3.4158608 5.873471,-3.3835736 1.309345,0.018074 1.340082,0.089307 0.29995,0.6951248 -1.518959,0.8847128 -1.475335,2.3798756 0.09394,3.2197261 0.917088,0.4908104 1.840294,0.3774208 3.445026,-0.4231257 3.116987,-1.5549575 8.505765,-0.6172411 28.68222,4.9910772 13.049775,3.62736 16.726386,4.893362 17.608992,6.063464 0.95336,1.263889 1.5016,1.413652 3.7713,1.030192 2.02122,-0.341486 3.1935,-0.140673 4.90645,0.84049 1.24634,0.713886 2.13504,1.692853 1.99151,2.193781 -0.14256,0.497532 -0.23559,1.426101 -0.20672,2.063487 0.0582,1.285457 -0.94056,1.376557 -4.50073,0.410515 z"
       id="path39" />
  </g>
</svg>
